<mxfile host="Electron" modified="2024-03-22T22:49:23.866Z" agent="Mozilla/5.0 (Windows NT 10.0; Win64; x64) AppleWebKit/537.36 (KHTML, like Gecko) draw.io/23.1.5 Chrome/120.0.6099.109 Electron/28.1.0 Safari/537.36" etag="HT9eYPIv7IpLWnZH4-Z_" version="23.1.5" type="device">
  <diagram name="Страница — 1" id="BJZdxgz5s_WYg6sS26t-">
    <mxGraphModel dx="2578" dy="1149" grid="1" gridSize="10" guides="1" tooltips="1" connect="1" arrows="1" fold="1" page="1" pageScale="1" pageWidth="827" pageHeight="1169" math="0" shadow="0">
      <root>
        <mxCell id="0" />
        <mxCell id="1" parent="0" />
        <mxCell id="ZeY-tp9K-6rsv-LQFb4R-2" value="" style="shape=umlLifeline;perimeter=lifelinePerimeter;whiteSpace=wrap;html=1;container=1;dropTarget=0;collapsible=0;recursiveResize=0;outlineConnect=0;portConstraint=eastwest;newEdgeStyle={&quot;curved&quot;:0,&quot;rounded&quot;:0};participant=umlActor;fillColor=#d5e8d4;strokeColor=#82b366;" parent="1" vertex="1">
          <mxGeometry x="400" y="280" width="20" height="820" as="geometry" />
        </mxCell>
        <mxCell id="ZeY-tp9K-6rsv-LQFb4R-90" value="" style="html=1;points=[[0,0,0,0,5],[0,1,0,0,-5],[1,0,0,0,5],[1,1,0,0,-5]];perimeter=orthogonalPerimeter;outlineConnect=0;targetShapes=umlLifeline;portConstraint=eastwest;newEdgeStyle={&quot;curved&quot;:0,&quot;rounded&quot;:0};fillColor=#d5e8d4;strokeColor=#82b366;" parent="ZeY-tp9K-6rsv-LQFb4R-2" vertex="1">
          <mxGeometry x="5" y="74" width="10" height="736" as="geometry" />
        </mxCell>
        <mxCell id="ZeY-tp9K-6rsv-LQFb4R-3" value=":GUI" style="shape=umlLifeline;perimeter=lifelinePerimeter;whiteSpace=wrap;html=1;container=1;dropTarget=0;collapsible=0;recursiveResize=0;outlineConnect=0;portConstraint=eastwest;newEdgeStyle={&quot;curved&quot;:0,&quot;rounded&quot;:0};fillColor=#d5e8d4;strokeColor=#82b366;" parent="1" vertex="1">
          <mxGeometry x="540" y="280" width="100" height="820" as="geometry" />
        </mxCell>
        <mxCell id="ZeY-tp9K-6rsv-LQFb4R-92" value="" style="html=1;points=[[0,0,0,0,5],[0,1,0,0,-5],[1,0,0,0,5],[1,1,0,0,-5]];perimeter=orthogonalPerimeter;outlineConnect=0;targetShapes=umlLifeline;portConstraint=eastwest;newEdgeStyle={&quot;curved&quot;:0,&quot;rounded&quot;:0};fillColor=#d5e8d4;strokeColor=#82b366;" parent="ZeY-tp9K-6rsv-LQFb4R-3" vertex="1">
          <mxGeometry x="45" y="75" width="10" height="735" as="geometry" />
        </mxCell>
        <mxCell id="ZeY-tp9K-6rsv-LQFb4R-4" value="" style="endArrow=open;html=1;rounded=0;endFill=0;" parent="1" edge="1">
          <mxGeometry width="50" height="50" relative="1" as="geometry">
            <mxPoint x="415" y="378" as="sourcePoint" />
            <mxPoint x="585" y="378" as="targetPoint" />
          </mxGeometry>
        </mxCell>
        <mxCell id="ZeY-tp9K-6rsv-LQFb4R-5" value="&lt;font style=&quot;font-size: 12px;&quot;&gt;Заполнить форму &lt;br&gt;регистрации&lt;/font&gt;" style="text;html=1;align=center;verticalAlign=middle;resizable=0;points=[];autosize=1;strokeColor=none;fillColor=none;fontSize=12;" parent="1" vertex="1">
          <mxGeometry x="445" y="335" width="120" height="40" as="geometry" />
        </mxCell>
        <mxCell id="ZeY-tp9K-6rsv-LQFb4R-6" value="&lt;font style=&quot;font-size: 12px;&quot;&gt;Выбрать &lt;br&gt;&quot;Зарегистрироваться&quot;&lt;/font&gt;" style="text;html=1;align=center;verticalAlign=middle;resizable=0;points=[];autosize=1;strokeColor=none;fillColor=none;" parent="1" vertex="1">
          <mxGeometry x="430" y="385" width="150" height="40" as="geometry" />
        </mxCell>
        <mxCell id="ZeY-tp9K-6rsv-LQFb4R-7" value="" style="endArrow=open;html=1;rounded=0;endFill=0;" parent="1" edge="1">
          <mxGeometry width="50" height="50" relative="1" as="geometry">
            <mxPoint x="415" y="422" as="sourcePoint" />
            <mxPoint x="585" y="422" as="targetPoint" />
          </mxGeometry>
        </mxCell>
        <mxCell id="ZeY-tp9K-6rsv-LQFb4R-8" value=":Валидатор клиента" style="shape=umlLifeline;perimeter=lifelinePerimeter;whiteSpace=wrap;html=1;container=1;dropTarget=0;collapsible=0;recursiveResize=0;outlineConnect=0;portConstraint=eastwest;newEdgeStyle={&quot;curved&quot;:0,&quot;rounded&quot;:0};fillColor=#d5e8d4;strokeColor=#82b366;" parent="1" vertex="1">
          <mxGeometry x="705" y="280" width="100" height="810" as="geometry" />
        </mxCell>
        <mxCell id="ZeY-tp9K-6rsv-LQFb4R-55" value=":Валидатор сервера" style="shape=umlLifeline;perimeter=lifelinePerimeter;whiteSpace=wrap;html=1;container=1;dropTarget=0;collapsible=0;recursiveResize=0;outlineConnect=0;portConstraint=eastwest;newEdgeStyle={&quot;curved&quot;:0,&quot;rounded&quot;:0};fillColor=#d5e8d4;strokeColor=#82b366;" parent="1" vertex="1">
          <mxGeometry x="1040" y="279" width="100" height="811" as="geometry" />
        </mxCell>
        <mxCell id="ZeY-tp9K-6rsv-LQFb4R-56" value=":Обработчик команд" style="shape=umlLifeline;perimeter=lifelinePerimeter;whiteSpace=wrap;html=1;container=1;dropTarget=0;collapsible=0;recursiveResize=0;outlineConnect=0;portConstraint=eastwest;newEdgeStyle={&quot;curved&quot;:0,&quot;rounded&quot;:0};fillColor=#d5e8d4;strokeColor=#82b366;" parent="1" vertex="1">
          <mxGeometry x="870" y="279" width="100" height="811" as="geometry" />
        </mxCell>
        <mxCell id="ZeY-tp9K-6rsv-LQFb4R-57" value="" style="endArrow=block;html=1;rounded=0;endFill=1;" parent="1" edge="1">
          <mxGeometry width="50" height="50" relative="1" as="geometry">
            <mxPoint x="595" y="643.0000000000002" as="sourcePoint" />
            <mxPoint x="915" y="643.0000000000002" as="targetPoint" />
          </mxGeometry>
        </mxCell>
        <mxCell id="ZeY-tp9K-6rsv-LQFb4R-58" value="&lt;font style=&quot;font-size: 12px;&quot;&gt;Запрос на сервер&lt;/font&gt;" style="text;html=1;align=center;verticalAlign=middle;resizable=0;points=[];autosize=1;strokeColor=none;fillColor=none;" parent="1" vertex="1">
          <mxGeometry x="695" y="610" width="120" height="30" as="geometry" />
        </mxCell>
        <mxCell id="ZeY-tp9K-6rsv-LQFb4R-59" value="" style="endArrow=block;html=1;rounded=0;endFill=1;" parent="1" edge="1">
          <mxGeometry width="50" height="50" relative="1" as="geometry">
            <mxPoint x="925" y="640" as="sourcePoint" />
            <mxPoint x="1085" y="640" as="targetPoint" />
          </mxGeometry>
        </mxCell>
        <mxCell id="ZeY-tp9K-6rsv-LQFb4R-60" value="&lt;font style=&quot;font-size: 12px;&quot;&gt;Валидация полей&lt;/font&gt;" style="text;html=1;align=center;verticalAlign=middle;resizable=0;points=[];autosize=1;strokeColor=none;fillColor=none;" parent="1" vertex="1">
          <mxGeometry x="945" y="610" width="120" height="30" as="geometry" />
        </mxCell>
        <mxCell id="ZeY-tp9K-6rsv-LQFb4R-61" value=":Коннектор с БД" style="shape=umlLifeline;perimeter=lifelinePerimeter;whiteSpace=wrap;html=1;container=1;dropTarget=0;collapsible=0;recursiveResize=0;outlineConnect=0;portConstraint=eastwest;newEdgeStyle={&quot;curved&quot;:0,&quot;rounded&quot;:0};fillColor=#d5e8d4;strokeColor=#82b366;" parent="1" vertex="1">
          <mxGeometry x="1220" y="280" width="100" height="810" as="geometry" />
        </mxCell>
        <mxCell id="ZeY-tp9K-6rsv-LQFb4R-62" value="" style="endArrow=classic;html=1;rounded=0;" parent="1" edge="1">
          <mxGeometry width="50" height="50" relative="1" as="geometry">
            <mxPoint x="1095" y="656" as="sourcePoint" />
            <mxPoint x="1265" y="656" as="targetPoint" />
          </mxGeometry>
        </mxCell>
        <mxCell id="ZeY-tp9K-6rsv-LQFb4R-63" value="&lt;span style=&quot;&quot;&gt;Запрос пользователя &lt;br&gt;с указанным email&lt;/span&gt;" style="text;html=1;align=center;verticalAlign=middle;resizable=0;points=[];autosize=1;strokeColor=none;fillColor=none;" parent="1" vertex="1">
          <mxGeometry x="1115" y="610" width="140" height="40" as="geometry" />
        </mxCell>
        <mxCell id="ZeY-tp9K-6rsv-LQFb4R-64" value="" style="endArrow=open;html=1;rounded=0;endFill=0;dashed=1;" parent="1" edge="1">
          <mxGeometry width="50" height="50" relative="1" as="geometry">
            <mxPoint x="1265" y="695" as="sourcePoint" />
            <mxPoint x="1095" y="695" as="targetPoint" />
          </mxGeometry>
        </mxCell>
        <mxCell id="ZeY-tp9K-6rsv-LQFb4R-65" value="&lt;font style=&quot;font-size: 12px;&quot;&gt;Ответ базы данных&lt;/font&gt;" style="text;html=1;align=center;verticalAlign=middle;resizable=0;points=[];autosize=1;strokeColor=none;fillColor=none;" parent="1" vertex="1">
          <mxGeometry x="1120" y="670" width="130" height="30" as="geometry" />
        </mxCell>
        <mxCell id="ZeY-tp9K-6rsv-LQFb4R-70" value="" style="endArrow=open;html=1;rounded=0;endFill=0;dashed=1;" parent="1" edge="1">
          <mxGeometry width="50" height="50" relative="1" as="geometry">
            <mxPoint x="1085" y="720" as="sourcePoint" />
            <mxPoint x="925" y="720" as="targetPoint" />
          </mxGeometry>
        </mxCell>
        <mxCell id="ZeY-tp9K-6rsv-LQFb4R-71" value="&lt;font style=&quot;font-size: 12px;&quot;&gt;Ответ валидатора&lt;/font&gt;" style="text;html=1;align=center;verticalAlign=middle;resizable=0;points=[];autosize=1;strokeColor=none;fillColor=none;" parent="1" vertex="1">
          <mxGeometry x="950" y="690" width="130" height="30" as="geometry" />
        </mxCell>
        <mxCell id="ZeY-tp9K-6rsv-LQFb4R-75" value="&lt;font style=&quot;font-size: 12px;&quot;&gt;[else]&lt;/font&gt;" style="text;html=1;align=center;verticalAlign=middle;whiteSpace=wrap;rounded=0;" parent="1" vertex="1">
          <mxGeometry x="310" y="880" width="120" height="30" as="geometry" />
        </mxCell>
        <mxCell id="ZeY-tp9K-6rsv-LQFb4R-76" value="&lt;font style=&quot;font-size: 12px;&quot;&gt;[валидация провалена]&lt;/font&gt;" style="text;html=1;align=center;verticalAlign=middle;whiteSpace=wrap;rounded=0;" parent="1" vertex="1">
          <mxGeometry x="342" y="760" width="170" height="30" as="geometry" />
        </mxCell>
        <mxCell id="ZeY-tp9K-6rsv-LQFb4R-77" value="" style="endArrow=open;html=1;rounded=0;endFill=0;dashed=1;" parent="1" edge="1">
          <mxGeometry width="50" height="50" relative="1" as="geometry">
            <mxPoint x="915" y="770" as="sourcePoint" />
            <mxPoint x="595" y="770" as="targetPoint" />
          </mxGeometry>
        </mxCell>
        <mxCell id="ZeY-tp9K-6rsv-LQFb4R-78" value="&lt;font style=&quot;font-size: 12px;&quot;&gt;Ответ сервера&lt;/font&gt;" style="text;html=1;align=center;verticalAlign=middle;resizable=0;points=[];autosize=1;strokeColor=none;fillColor=none;" parent="1" vertex="1">
          <mxGeometry x="710" y="742" width="110" height="30" as="geometry" />
        </mxCell>
        <mxCell id="ZeY-tp9K-6rsv-LQFb4R-79" value="" style="html=1;points=[[0,0,0,0,5],[0,1,0,0,-5],[1,0,0,0,5],[1,1,0,0,-5]];perimeter=orthogonalPerimeter;outlineConnect=0;targetShapes=umlLifeline;portConstraint=eastwest;newEdgeStyle={&quot;curved&quot;:0,&quot;rounded&quot;:0};fillColor=#d5e8d4;strokeColor=#82b366;" parent="1" vertex="1">
          <mxGeometry x="590" y="820" width="10" height="40" as="geometry" />
        </mxCell>
        <mxCell id="ZeY-tp9K-6rsv-LQFb4R-80" value="&lt;div style=&quot;font-size: 13px;&quot;&gt;&lt;font style=&quot;font-size: 13px;&quot;&gt;Уведомить о&lt;/font&gt;&lt;/div&gt;&lt;div style=&quot;font-size: 13px;&quot;&gt;&lt;font style=&quot;font-size: 13px;&quot;&gt;невалидности полей&lt;/font&gt;&lt;/div&gt;" style="html=1;align=center;spacingLeft=2;endArrow=block;rounded=0;edgeStyle=orthogonalEdgeStyle;curved=0;rounded=0;" parent="1" target="ZeY-tp9K-6rsv-LQFb4R-79" edge="1">
          <mxGeometry x="-0.0595" y="75" relative="1" as="geometry">
            <mxPoint x="595" y="800" as="sourcePoint" />
            <Array as="points">
              <mxPoint x="625" y="830" />
            </Array>
            <mxPoint as="offset" />
          </mxGeometry>
        </mxCell>
        <mxCell id="ZeY-tp9K-6rsv-LQFb4R-81" value="" style="endArrow=classic;html=1;rounded=0;" parent="1" edge="1">
          <mxGeometry width="50" height="50" relative="1" as="geometry">
            <mxPoint x="925" y="916" as="sourcePoint" />
            <mxPoint x="1265" y="916" as="targetPoint" />
          </mxGeometry>
        </mxCell>
        <mxCell id="ZeY-tp9K-6rsv-LQFb4R-82" value="&lt;span style=&quot;color: rgb(0, 0, 0); font-family: Helvetica; font-style: normal; font-variant-ligatures: normal; font-variant-caps: normal; font-weight: 400; letter-spacing: normal; orphans: 2; text-align: center; text-indent: 0px; text-transform: none; widows: 2; word-spacing: 0px; -webkit-text-stroke-width: 0px; background-color: rgb(255, 255, 255); text-decoration-thickness: initial; text-decoration-style: initial; text-decoration-color: initial; float: none; display: inline !important;&quot;&gt;&lt;font style=&quot;font-size: 12px;&quot;&gt;Сохранить пользователя в базе данных&lt;/font&gt;&lt;/span&gt;" style="text;whiteSpace=wrap;html=1;" parent="1" vertex="1">
          <mxGeometry x="980" y="890" width="240" height="40" as="geometry" />
        </mxCell>
        <mxCell id="ZeY-tp9K-6rsv-LQFb4R-83" value="" style="endArrow=open;html=1;rounded=0;endFill=0;dashed=1;" parent="1" edge="1">
          <mxGeometry width="50" height="50" relative="1" as="geometry">
            <mxPoint x="1265" y="955" as="sourcePoint" />
            <mxPoint x="925" y="955" as="targetPoint" />
          </mxGeometry>
        </mxCell>
        <mxCell id="ZeY-tp9K-6rsv-LQFb4R-84" value="&lt;font style=&quot;font-size: 12px;&quot;&gt;Ответ базы данных&lt;/font&gt;" style="text;html=1;align=center;verticalAlign=middle;resizable=0;points=[];autosize=1;strokeColor=none;fillColor=none;" parent="1" vertex="1">
          <mxGeometry x="1050" y="930" width="130" height="30" as="geometry" />
        </mxCell>
        <mxCell id="ZeY-tp9K-6rsv-LQFb4R-86" value="" style="endArrow=open;html=1;rounded=0;endFill=0;dashed=1;" parent="1" edge="1">
          <mxGeometry width="50" height="50" relative="1" as="geometry">
            <mxPoint x="915" y="975" as="sourcePoint" />
            <mxPoint x="595" y="975" as="targetPoint" />
          </mxGeometry>
        </mxCell>
        <mxCell id="ZeY-tp9K-6rsv-LQFb4R-87" value="&lt;font style=&quot;font-size: 12px;&quot;&gt;Ответ&lt;/font&gt;" style="text;html=1;align=center;verticalAlign=middle;resizable=0;points=[];autosize=1;strokeColor=none;fillColor=none;" parent="1" vertex="1">
          <mxGeometry x="725" y="948" width="60" height="30" as="geometry" />
        </mxCell>
        <mxCell id="ZeY-tp9K-6rsv-LQFb4R-88" value="" style="html=1;points=[[0,0,0,0,5],[0,1,0,0,-5],[1,0,0,0,5],[1,1,0,0,-5]];perimeter=orthogonalPerimeter;outlineConnect=0;targetShapes=umlLifeline;portConstraint=eastwest;newEdgeStyle={&quot;curved&quot;:0,&quot;rounded&quot;:0};fillColor=#d5e8d4;strokeColor=#82b366;" parent="1" vertex="1">
          <mxGeometry x="590" y="1016" width="10" height="40" as="geometry" />
        </mxCell>
        <mxCell id="ZeY-tp9K-6rsv-LQFb4R-89" value="&lt;font style=&quot;font-size: 12px;&quot;&gt;&lt;font style=&quot;font-size: 12px;&quot;&gt;Уведомить&lt;/font&gt;&lt;font style=&quot;font-size: 12px;&quot;&gt; &lt;/font&gt;&lt;font style=&quot;font-size: 12px;&quot;&gt;&lt;font style=&quot;font-size: 12px;&quot;&gt;о&lt;/font&gt;&lt;font style=&quot;font-size: 12px;&quot;&gt;&lt;br style=&quot;border-color: var(--border-color);&quot;&gt;&lt;/font&gt;&lt;/font&gt;&lt;/font&gt;&lt;div style=&quot;border-color: var(--border-color); font-size: 12px;&quot;&gt;&lt;font style=&quot;font-size: 12px;&quot;&gt;&lt;font style=&quot;font-size: 12px;&quot;&gt;успешной&lt;/font&gt;&lt;font style=&quot;font-size: 12px;&quot;&gt;&amp;nbsp;регистрации&lt;/font&gt;&lt;/font&gt;&lt;/div&gt;" style="html=1;align=center;spacingLeft=2;endArrow=block;rounded=0;edgeStyle=orthogonalEdgeStyle;curved=0;rounded=0;" parent="1" target="ZeY-tp9K-6rsv-LQFb4R-88" edge="1">
          <mxGeometry x="0.0982" y="75" relative="1" as="geometry">
            <mxPoint x="595" y="1000" as="sourcePoint" />
            <Array as="points">
              <mxPoint x="625" y="1000" />
            </Array>
            <mxPoint as="offset" />
          </mxGeometry>
        </mxCell>
        <mxCell id="ZeY-tp9K-6rsv-LQFb4R-91" value="&amp;nbsp;sd Регистрация" style="shape=umlFrame;whiteSpace=wrap;html=1;pointerEvents=0;width=140;height=20;align=left;" parent="1" vertex="1">
          <mxGeometry x="270" y="250" width="1090" height="850" as="geometry" />
        </mxCell>
        <mxCell id="ZeY-tp9K-6rsv-LQFb4R-94" value="" style="html=1;points=[[0,0,0,0,5],[0,1,0,0,-5],[1,0,0,0,5],[1,1,0,0,-5]];perimeter=orthogonalPerimeter;outlineConnect=0;targetShapes=umlLifeline;portConstraint=eastwest;newEdgeStyle={&quot;curved&quot;:0,&quot;rounded&quot;:0};fillColor=#d5e8d4;strokeColor=#82b366;" parent="1" vertex="1">
          <mxGeometry x="915" y="610" width="10" height="370" as="geometry" />
        </mxCell>
        <mxCell id="ZeY-tp9K-6rsv-LQFb4R-95" value="" style="html=1;points=[[0,0,0,0,5],[0,1,0,0,-5],[1,0,0,0,5],[1,1,0,0,-5]];perimeter=orthogonalPerimeter;outlineConnect=0;targetShapes=umlLifeline;portConstraint=eastwest;newEdgeStyle={&quot;curved&quot;:0,&quot;rounded&quot;:0};fillColor=#d5e8d4;strokeColor=#82b366;" parent="1" vertex="1">
          <mxGeometry x="1085" y="630" width="10" height="100" as="geometry" />
        </mxCell>
        <mxCell id="ZeY-tp9K-6rsv-LQFb4R-96" value="" style="html=1;points=[[0,0,0,0,5],[0,1,0,0,-5],[1,0,0,0,5],[1,1,0,0,-5]];perimeter=orthogonalPerimeter;outlineConnect=0;targetShapes=umlLifeline;portConstraint=eastwest;newEdgeStyle={&quot;curved&quot;:0,&quot;rounded&quot;:0};fillColor=#d5e8d4;strokeColor=#82b366;" parent="1" vertex="1">
          <mxGeometry x="1265" y="650" width="10" height="50" as="geometry" />
        </mxCell>
        <mxCell id="ZeY-tp9K-6rsv-LQFb4R-97" value="" style="html=1;points=[[0,0,0,0,5],[0,1,0,0,-5],[1,0,0,0,5],[1,1,0,0,-5]];perimeter=orthogonalPerimeter;outlineConnect=0;targetShapes=umlLifeline;portConstraint=eastwest;newEdgeStyle={&quot;curved&quot;:0,&quot;rounded&quot;:0};fillColor=#d5e8d4;strokeColor=#82b366;" parent="1" vertex="1">
          <mxGeometry x="1265" y="910" width="10" height="50" as="geometry" />
        </mxCell>
        <mxCell id="ZeY-tp9K-6rsv-LQFb4R-66" value="&lt;font style=&quot;font-size: 12px;&quot;&gt;alt&lt;/font&gt;" style="shape=umlFrame;whiteSpace=wrap;html=1;pointerEvents=0;width=40;height=15;" parent="1" vertex="1">
          <mxGeometry x="340" y="740" width="990" height="330" as="geometry" />
        </mxCell>
        <mxCell id="ZeY-tp9K-6rsv-LQFb4R-74" value="" style="endArrow=none;dashed=1;html=1;rounded=0;exitX=0;exitY=0.404;exitDx=0;exitDy=0;exitPerimeter=0;" parent="1" source="ZeY-tp9K-6rsv-LQFb4R-66" edge="1">
          <mxGeometry width="50" height="50" relative="1" as="geometry">
            <mxPoint x="840" y="890" as="sourcePoint" />
            <mxPoint x="1330" y="873" as="targetPoint" />
          </mxGeometry>
        </mxCell>
        <mxCell id="e_HESVgeIngYG6pmchC1-57" value="&lt;div style=&quot;font-size: 12px;&quot;&gt;&lt;font style=&quot;font-size: 12px;&quot;&gt;Уведомить о&lt;/font&gt;&lt;/div&gt;&lt;div style=&quot;font-size: 12px;&quot;&gt;&lt;font style=&quot;font-size: 12px;&quot;&gt;невалидности полей&lt;/font&gt;&lt;/div&gt;" style="html=1;align=center;spacingLeft=2;endArrow=block;rounded=0;edgeStyle=orthogonalEdgeStyle;curved=0;rounded=0;" edge="1" parent="1" target="e_HESVgeIngYG6pmchC1-58">
          <mxGeometry x="-0.0588" y="75" relative="1" as="geometry">
            <mxPoint x="595" y="540" as="sourcePoint" />
            <Array as="points">
              <mxPoint x="625" y="570" />
            </Array>
            <mxPoint as="offset" />
          </mxGeometry>
        </mxCell>
        <mxCell id="e_HESVgeIngYG6pmchC1-58" value="" style="html=1;points=[[0,0,0,0,5],[0,1,0,0,-5],[1,0,0,0,5],[1,1,0,0,-5]];perimeter=orthogonalPerimeter;outlineConnect=0;targetShapes=umlLifeline;portConstraint=eastwest;newEdgeStyle={&quot;curved&quot;:0,&quot;rounded&quot;:0};fillColor=#d5e8d4;strokeColor=#82b366;" vertex="1" parent="1">
          <mxGeometry x="590" y="560" width="10" height="40" as="geometry" />
        </mxCell>
        <mxCell id="e_HESVgeIngYG6pmchC1-59" value="" style="endArrow=block;html=1;rounded=0;endFill=1;" edge="1" parent="1">
          <mxGeometry width="50" height="50" relative="1" as="geometry">
            <mxPoint x="595" y="453" as="sourcePoint" />
            <mxPoint x="750" y="453" as="targetPoint" />
          </mxGeometry>
        </mxCell>
        <mxCell id="e_HESVgeIngYG6pmchC1-60" value="&lt;font style=&quot;font-size: 12px;&quot;&gt;Валидация полей&lt;/font&gt;" style="text;html=1;align=center;verticalAlign=middle;resizable=0;points=[];autosize=1;strokeColor=none;fillColor=none;" vertex="1" parent="1">
          <mxGeometry x="610" y="424" width="120" height="30" as="geometry" />
        </mxCell>
        <mxCell id="e_HESVgeIngYG6pmchC1-61" value="" style="endArrow=open;html=1;rounded=0;endFill=0;dashed=1;" edge="1" parent="1">
          <mxGeometry width="50" height="50" relative="1" as="geometry">
            <mxPoint x="750" y="486.0000000000001" as="sourcePoint" />
            <mxPoint x="595" y="486" as="targetPoint" />
          </mxGeometry>
        </mxCell>
        <mxCell id="e_HESVgeIngYG6pmchC1-62" value="&lt;font style=&quot;font-size: 12px;&quot;&gt;Ответ валидатора&lt;/font&gt;" style="text;html=1;align=center;verticalAlign=middle;resizable=0;points=[];autosize=1;strokeColor=none;fillColor=none;" vertex="1" parent="1">
          <mxGeometry x="606" y="461" width="130" height="30" as="geometry" />
        </mxCell>
        <mxCell id="e_HESVgeIngYG6pmchC1-63" value="&lt;font style=&quot;font-size: 12px;&quot;&gt;[валидация провалена]&lt;/font&gt;" style="text;html=1;align=center;verticalAlign=middle;whiteSpace=wrap;rounded=0;" vertex="1" parent="1">
          <mxGeometry x="297" y="530" width="148" height="30" as="geometry" />
        </mxCell>
        <mxCell id="e_HESVgeIngYG6pmchC1-64" value="" style="endArrow=open;html=1;rounded=0;endFill=0;dashed=1;" edge="1" parent="1">
          <mxGeometry width="50" height="50" relative="1" as="geometry">
            <mxPoint x="585" y="573" as="sourcePoint" />
            <mxPoint x="415" y="573" as="targetPoint" />
          </mxGeometry>
        </mxCell>
        <mxCell id="e_HESVgeIngYG6pmchC1-65" value="Уведомление" style="text;html=1;align=center;verticalAlign=middle;resizable=0;points=[];autosize=1;strokeColor=none;fillColor=none;" vertex="1" parent="1">
          <mxGeometry x="448" y="546" width="100" height="30" as="geometry" />
        </mxCell>
        <mxCell id="e_HESVgeIngYG6pmchC1-66" value="" style="html=1;points=[[0,0,0,0,5],[0,1,0,0,-5],[1,0,0,0,5],[1,1,0,0,-5]];perimeter=orthogonalPerimeter;outlineConnect=0;targetShapes=umlLifeline;portConstraint=eastwest;newEdgeStyle={&quot;curved&quot;:0,&quot;rounded&quot;:0};fillColor=#d5e8d4;strokeColor=#82b366;" vertex="1" parent="1">
          <mxGeometry x="750" y="444" width="10" height="46" as="geometry" />
        </mxCell>
        <mxCell id="e_HESVgeIngYG6pmchC1-67" value="alt" style="shape=umlFrame;whiteSpace=wrap;html=1;pointerEvents=0;" vertex="1" parent="1">
          <mxGeometry x="290" y="500" width="1050" height="580" as="geometry" />
        </mxCell>
        <mxCell id="e_HESVgeIngYG6pmchC1-68" value="" style="endArrow=none;dashed=1;html=1;rounded=0;exitX=0;exitY=0.404;exitDx=0;exitDy=0;exitPerimeter=0;" edge="1" parent="1">
          <mxGeometry width="50" height="50" relative="1" as="geometry">
            <mxPoint x="290" y="610" as="sourcePoint" />
            <mxPoint x="1340" y="612" as="targetPoint" />
          </mxGeometry>
        </mxCell>
        <mxCell id="e_HESVgeIngYG6pmchC1-69" value="&lt;font style=&quot;font-size: 12px;&quot;&gt;[else]&lt;/font&gt;" style="text;html=1;align=center;verticalAlign=middle;whiteSpace=wrap;rounded=0;" vertex="1" parent="1">
          <mxGeometry x="280" y="615" width="78" height="30" as="geometry" />
        </mxCell>
      </root>
    </mxGraphModel>
  </diagram>
</mxfile>
